<svg width="144" height="144" viewBox="0 0 144 144" fill="none" xmlns="http://www.w3.org/2000/svg">
<path d="M111.083 28.1047H45.9444V114.495H111.083V28.1047Z" fill="#00AAFF"/>
<path d="M65.4301 9.5313L37.7445 48.8631L6.10104 9.14777L65.4301 9.5313Z" fill="#00AAFF"/>
<path d="M70.5043 9.43446C83.7256 9.43446 95.2794 12.1194 105.166 17.4893C115.171 22.7398 122.854 30.1383 128.214 39.6848C133.574 49.2311 136.254 60.1498 136.254 72.4409C136.254 84.6126 133.514 95.4717 128.035 105.018C122.675 114.565 114.992 122.082 104.987 127.572C95.1007 132.942 83.6065 135.626 70.5043 135.626H20.6565V9.43446H70.5043ZM67.8243 104.66C78.0678 104.66 86.1078 101.856 91.9443 96.2473C97.7807 90.6388 100.699 82.7033 100.699 72.4409C100.699 62.0591 97.7807 54.0639 91.9443 48.4554C86.1078 42.7275 78.0678 39.8638 67.8243 39.8638H55.6752V104.66H67.8243Z" fill="#00AAFF"/>
<path d="M43.0581 126.056L37.1708 115.35H35.5175V126.056H28.6221V97.6961H40.1951C42.4263 97.6961 44.3216 98.0864 45.8808 98.8677C47.4668 99.6489 48.6497 100.726 49.4293 102.1C50.2089 103.446 50.5987 104.954 50.5987 106.624C50.5987 108.509 50.061 110.193 48.9857 111.674C47.9373 113.155 46.3781 114.205 44.3082 114.825L50.8407 126.056H43.0581ZM35.5175 110.462H39.7919C41.0553 110.462 41.9962 110.152 42.6145 109.533C43.2597 108.913 43.5823 108.038 43.5823 106.907C43.5823 105.83 43.2597 104.981 42.6145 104.362C41.9962 103.742 41.0553 103.433 39.7919 103.433H35.5175V110.462ZM72.549 121.046H61.9839L60.2903 126.056H53.0723L63.3146 97.6961H71.299L81.5413 126.056H74.2426L72.549 121.046ZM70.7748 115.714L67.2666 105.331L63.7985 115.714H70.7748ZM102.401 97.6961V117.007C102.401 119.996 101.554 122.299 99.8608 123.915C98.1939 125.531 95.9358 126.339 93.0864 126.339C90.1024 126.339 87.7096 125.49 85.9087 123.793C84.1071 122.097 83.207 119.687 83.207 116.562H90.0621C90.0621 117.747 90.304 118.649 90.7879 119.269C91.2718 119.861 91.9703 120.158 92.8848 120.158C93.7179 120.158 94.3631 119.888 94.8203 119.35C95.2769 118.811 95.5058 118.03 95.5058 117.007V97.6961H102.401Z" fill="#333333"/>
</svg>
