<svg width="216" height="251" viewBox="0 0 216 251" fill="none" xmlns="http://www.w3.org/2000/svg">
<rect x="66" y="77.3993" width="105" height="139" fill="#00AAFF"/>
<path d="M97.4098 47.5151L52.7822 110.799L1.77482 46.898L97.4098 47.5151Z" fill="#00AAFF"/>
<path d="M105.589 47.3593C126.901 47.3593 145.525 51.6793 161.461 60.3193C177.589 68.7673 189.973 80.6713 198.613 96.0313C207.253 111.391 211.573 128.959 211.573 148.735C211.573 168.319 207.157 185.791 198.325 201.151C189.685 216.511 177.301 228.607 161.173 237.439C145.237 246.079 126.709 250.399 105.589 250.399H25.2374V47.3593H105.589ZM101.269 200.575C117.781 200.575 130.741 196.063 140.149 187.039C149.557 178.015 154.261 165.247 154.261 148.735C154.261 132.031 149.557 119.167 140.149 110.143C130.741 100.927 117.781 96.3193 101.269 96.3193H81.6854V200.575H101.269Z" fill="#00AAFF"/>
<path d="M61.3474 235L51.8574 217.775H49.1924V235H38.0774V189.37H56.7324C60.329 189.37 63.384 189.998 65.8974 191.255C68.454 192.512 70.3607 194.245 71.6174 196.455C72.874 198.622 73.5024 201.048 73.5024 203.735C73.5024 206.768 72.6357 209.477 70.9024 211.86C69.2124 214.243 66.699 215.933 63.3624 216.93L73.8924 235H61.3474ZM49.1924 209.91H56.0824C58.119 209.91 59.6357 209.412 60.6324 208.415C61.6724 207.418 62.1924 206.01 62.1924 204.19C62.1924 202.457 61.6724 201.092 60.6324 200.095C59.6357 199.098 58.119 198.6 56.0824 198.6H49.1924V209.91ZM108.885 226.94H91.8547L89.1247 235H77.4897L93.9997 189.37H106.87L123.38 235H111.615L108.885 226.94ZM106.025 218.36L100.37 201.655L94.7797 218.36H106.025ZM157.005 189.37V220.44C157.005 225.25 155.64 228.955 152.91 231.555C150.223 234.155 146.583 235.455 141.99 235.455C137.18 235.455 133.323 234.09 130.42 231.36C127.516 228.63 126.065 224.752 126.065 219.725H137.115C137.115 221.632 137.505 223.083 138.285 224.08C139.065 225.033 140.191 225.51 141.665 225.51C143.008 225.51 144.048 225.077 144.785 224.21C145.521 223.343 145.89 222.087 145.89 220.44V189.37H157.005Z" fill="#333333"/>
</svg>
