<svg width="211" height="205" viewBox="0 0 211 205" fill="none" xmlns="http://www.w3.org/2000/svg">
<path fill-rule="evenodd" clip-rule="evenodd" d="M72.2619 1.35928L0.774796 0.898026L24.2374 30.2912V204.399H104.589C125.709 204.399 144.237 200.079 160.173 191.439C176.301 182.607 188.685 170.511 197.325 155.151C206.157 139.791 210.573 122.319 210.573 102.735C210.573 82.9593 206.253 65.3913 197.613 50.0313C188.973 34.6713 176.589 22.7673 160.461 14.3193C144.525 5.67929 125.901 1.35928 104.589 1.35928H72.2619ZM73.3109 48.4V19H38.3109V194H73.3109V65.2C77.2776 61 81.7109 57.0333 86.6109 53.3C91.5109 49.5667 96.6443 47.7 102.011 47.7C104.578 47.7 106.678 48.1667 108.311 49.1C109.944 50.0333 111.344 51.0833 112.511 52.25C113.911 53.1833 115.194 54.1167 116.361 55.05C117.761 55.9833 119.511 56.45 121.611 56.45C123.011 56.45 124.644 56.2167 126.511 55.75C128.378 55.05 130.128 54 131.761 52.6C133.394 51.2 134.794 49.3333 135.961 47C137.128 44.6667 137.711 41.75 137.711 38.25C137.711 32.4167 135.844 27.5167 132.111 23.55C128.378 19.35 122.544 17.25 114.611 17.25C109.711 17.25 105.278 18.1833 101.311 20.05C97.3443 21.6833 93.7276 23.9 90.4609 26.7C87.1943 29.5 84.1609 32.7667 81.3609 36.5C78.7943 40.2333 76.1109 44.2 73.3109 48.4Z" fill="#00AAFF"/>
</svg>
